<?xml version="1.0" encoding="UTF-8"?>
<svg id="Livello_1" data-name="Livello 1" xmlns="http://www.w3.org/2000/svg" viewBox="0 0 68.16 58.91">
  <defs>
    <style>
      .cls-1 {
        fill: #7ec9cc;
      }

      .cls-2 {
        fill: #1f808e;
      }

      .cls-3 {
        fill: #00abc0;
      }

      .cls-4 {
        fill: #c4e1df;
      }
    </style>
  </defs>
  <path class="cls-2" d="M48.09,21.16c1,1.7,2.48,3.6,3.24,5.44.25.61.37,1.26.17,1.91.7.22,1.33.68,1.71,1.31,4.86,8.49,9.85,16.84,14.75,25.3.26.57.3,1.3-.14,1.79-.14.15-.48.26-.55.38-.1.18-.01.5-.09.75-.13.42-.86.87-1.3.83h-30.16c-.26,0-.51-.09-.76-.17-.23-.08-1.04-.58-1.1-.58-.15,0-1.32.93-1.77.75H2.4c-.67-.04-1.32-.43-1.51-1.09-.05-.18.03-.42-.07-.58-.11-.19-.67-.36-.77-.81-.14-.63.05-.99.3-1.51,2-4.07,4.93-8.33,7.23-12.28,2.43-4.17,4.83-9,7.48-12.96.35-.52.5-.75,1.03-1.11.13-.09.65-.28.67-.31.07-.12-.01-.96.02-1.23.12-.94,3.11-5.76,3.81-6.95,3.57-6.1,7.14-12.62,10.88-18.61.51-.82.91-1.65,2.09-1.4.18.04.37.23.5.24.12,0,.36-.2.56-.24.62-.12,1.18.03,1.55.54,4.04,6.82,7.9,13.74,11.91,20.57ZM34.32,3.8c-.15-.49-.55-2.36-.77-2.62-.36-.41-.8.07-.98.43-3.94,6.75-7.79,13.56-11.75,20.3-.82,1.4-1.84,2.82-2.59,4.29-.56,1.11-.64,1.94.23,2.93-.96-.17-1.76.01-2.37.79-4.94,8.6-9.97,17.09-14.97,25.64l-.07.62.4-.02c8.75-8.63,17.37-17.41,26.03-26.12,2.32-2.33,4.71-4.59,7.02-6.92.95-.95,2.38-2.25,3.18-3.24.51-.63.69-1.35.58-2.16-1.3-4.64-2.53-9.39-3.94-13.94ZM48.21,23.17c-4.19-7.12-8.47-14.28-12.55-21.5-.21-.47-.93-1.07-.82-.2,4.53,16.45,8.92,33.05,13.7,49.37.37.61.89,1.09,1.59,1.3l16.24,4.22c1.03.13.83-.41.51-1.06-1.4-2.86-3.47-5.85-5.07-8.59-3.26-5.59-6.42-11.26-9.79-16.78-.61-.48-1.34-.65-2.09-.47.51-.61.77-1.23.61-2.05-.14-.74-1.83-3.4-2.32-4.24ZM47.59,51.45l-8.8-31.38-23.03,23.26,31.83,8.12ZM66.2,57.76c.22-.33-.36-.6-.62-.62l-49.49-12.75c-.74-.06-1.32.06-1.91.51l-12.05,12.02c-.42.46-.29.96.37.93h29.6c.94-.11,1.58-.89,1.77-1.77.17.91.95,1.61,1.86,1.77h29.97c.1,0,.46-.05.5-.1Z"/>
  <path class="cls-1" d="M34.32,3.8c1.41,4.54,2.64,9.3,3.94,13.94.11.81-.07,1.53-.58,2.16-.8.99-2.23,2.29-3.18,3.24-2.31,2.33-4.7,4.59-7.02,6.92-8.66,8.71-17.28,17.49-26.03,26.12l-.4.02.07-.62c4.99-8.55,10.02-17.05,14.97-25.64.6-.78,1.41-.96,2.37-.79-.88-.99-.8-1.82-.23-2.93.75-1.47,1.77-2.89,2.59-4.29,3.96-6.74,7.81-13.55,11.75-20.3.17-.36.62-.84.98-.43.23.26.62,2.13.77,2.62Z"/>
  <path class="cls-4" d="M48.21,23.17c.49.83,2.17,3.5,2.32,4.24.16.81-.1,1.43-.61,2.05.75-.18,1.49-.02,2.09.47,3.37,5.52,6.53,11.19,9.79,16.78,1.61,2.75,3.67,5.74,5.07,8.59.32.66.53,1.19-.51,1.06l-16.24-4.22c-.69-.2-1.21-.69-1.59-1.3-4.78-16.32-9.17-32.92-13.7-49.37-.1-.87.61-.27.82.2,4.08,7.22,8.36,14.39,12.55,21.5Z"/>
  <path class="cls-3" d="M66.2,57.76c-.04.05-.4.1-.5.11h-29.97c-.91-.16-1.7-.86-1.86-1.77-.19.88-.83,1.66-1.77,1.77H2.49c-.66.03-.79-.47-.37-.93l12.05-12.02c.59-.45,1.17-.57,1.91-.51l49.49,12.75c.26.02.84.29.62.62Z"/>
</svg>