<?xml version="1.0" encoding="UTF-8"?>
<svg id="Livello_1" data-name="Livello 1" xmlns="http://www.w3.org/2000/svg" viewBox="0 0 387.68 59.9">
  <defs>
    <style>
      .cls-1 {
        fill: #7ec9cc;
      }

      .cls-2 {
        fill: #1f808e;
      }

      .cls-3 {
        fill: #00abc0;
      }

      .cls-4 {
        fill: #c4e1df;
      }

      .cls-5 {
        fill: #288290;
      }
    </style>
  </defs>
  <path class="cls-2" d="M235.6,59.81c-9.34-.49-19.38-4.99-19.92-15.55s7.18-15.88,16.55-17.47,22.53-.27,27.86,8.63c1.97,3.29,2.64,7.11,2.59,10.92h-30.62c.23,4.11,4.92,5.52,8.43,5.3,1.26-.08,3.57-.61,4.56-1.4.18-.15.6-.74.65-.74h15.68c-2.46,7.34-10.75,9.69-17.73,10.21-.37.03-.82.08-1.16.09-2.12.1-4.78.11-6.89,0ZM261.66,45.33c-.11-3.74-.97-7.46-3.18-10.52-6.25-8.64-22.75-9.06-31.84-5.43-5.09,2.04-9.52,6.48-9.93,12.19-1.19,16.64,17.71,18.68,30.09,16.74,5.06-.79,10.7-2.86,13-7.78h-13.68s0,.16-.09.23c-3.62,3.19-12.85,2.41-14.69-2.62-.33-.9-.35-1.87-.39-2.81h30.71Z"/>
  <path class="cls-2" d="M141.13,59.81c-11.67-.81-18.06-11.02-15.14-22.11,2.45-9.32,11.61-12.52,20.48-11.29,2.98.41,5.84,1.68,8.06,3.7v-14.3h17.22v43.08h-16.75c0-.93.21-1.86.05-2.78-1.83,1.63-4.09,2.75-6.49,3.28-.78.17-1.7.37-2.5.43-1.37.11-3.55.1-4.93,0ZM170.73,16.83h-15.17v15.41c-1.31-.95-2.43-2.16-3.85-2.99-3.9-2.28-9.33-2.41-13.67-1.53-8.72,1.76-12.62,9.5-11.51,17.92,1.34,10.18,10.81,14.28,20.22,13.04,3.81-.5,6.81-2.3,9.46-5l-.19,4.18h14.71V16.83Z"/>
  <path class="cls-2" d="M286.23,59.81c-10.72-.67-20.62-6.3-19.72-18.32.6-8.06,7.66-12.98,15.06-14.5,13.25-2.72,33.46.89,31.36,18.47-1.17,9.77-11.18,13.9-19.91,14.35-2.03.1-4.78.13-6.79,0ZM268.23,47.68c2.45,6.96,8.68,9.88,15.64,10.81,11.95,1.61,29.05-1.18,28.15-16.65-.49-8.47-8.06-12.94-15.71-14.13-8.21-1.27-20.2-.44-25.8,6.52-2.97,3.69-3.83,9.01-2.27,13.45Z"/>
  <path class="cls-2" d="M48.09,21.16c1,1.7,2.48,3.6,3.24,5.44.25.61.37,1.26.17,1.91.7.22,1.33.68,1.71,1.31,4.86,8.49,9.85,16.84,14.75,25.3.26.57.3,1.3-.14,1.79-.14.15-.48.26-.55.38-.1.18-.01.5-.09.75-.13.42-.86.87-1.3.83h-30.16c-.26,0-.51-.09-.76-.17-.23-.08-1.04-.58-1.1-.58-.15,0-1.32.93-1.77.75H2.4c-.67-.04-1.32-.43-1.51-1.09-.05-.18.03-.42-.07-.58-.11-.19-.67-.36-.77-.81-.14-.63.05-.99.3-1.51,2-4.07,4.93-8.33,7.23-12.28,2.43-4.17,4.83-9,7.48-12.96.35-.52.5-.75,1.03-1.11.13-.09.65-.28.67-.31.07-.12-.01-.96.02-1.23.12-.94,3.11-5.76,3.81-6.95,3.57-6.1,7.14-12.62,10.88-18.61.51-.82.91-1.65,2.09-1.4.18.04.37.23.5.24.12,0,.36-.2.56-.24.62-.12,1.18.03,1.55.54,4.04,6.82,7.9,13.74,11.91,20.57ZM34.32,3.8c-.15-.49-.55-2.36-.77-2.62-.36-.41-.8.07-.98.43-3.94,6.75-7.79,13.56-11.75,20.3-.82,1.4-1.84,2.82-2.59,4.29-.56,1.11-.64,1.94.23,2.93-.96-.17-1.76.01-2.37.79-4.94,8.6-9.97,17.09-14.97,25.64l-.07.62.4-.02c8.75-8.63,17.37-17.41,26.03-26.12,2.32-2.33,4.71-4.59,7.02-6.92.95-.95,2.38-2.25,3.18-3.24.51-.63.69-1.35.58-2.16-1.3-4.64-2.53-9.39-3.94-13.94ZM48.21,23.17c-4.19-7.12-8.47-14.28-12.55-21.5-.21-.47-.93-1.07-.82-.2,4.53,16.45,8.92,33.05,13.7,49.37.37.61.89,1.09,1.59,1.3l16.24,4.22c1.03.13.83-.41.51-1.06-1.4-2.86-3.47-5.85-5.07-8.59-3.26-5.59-6.42-11.26-9.79-16.78-.61-.48-1.34-.65-2.09-.47.51-.61.77-1.23.61-2.05-.14-.74-1.83-3.4-2.32-4.24ZM47.59,51.45l-8.8-31.38-23.03,23.26,31.83,8.12ZM66.2,57.76c.22-.33-.36-.6-.62-.62l-49.49-12.75c-.74-.06-1.32.06-1.91.51l-12.05,12.02c-.42.46-.29.96.37.93h29.6c.94-.11,1.58-.89,1.77-1.77.17.91.95,1.61,1.86,1.77h29.97c.1,0,.46-.05.5-.1Z"/>
  <path class="cls-2" d="M90.87,27.23l.09,3.16c2.42-1.88,5.32-3.2,8.36-3.78,8.44-1.61,19.72,1.57,19.38,11.9v20.38h-16.85v-17.78c-.13-2.45-.73-3.73-3.25-4.27-2.65-.57-5.9.58-6.91,3.24-.09.24-.35,1.11-.35,1.32v17.5h-16.85v-31.66h16.38ZM89.85,28.25h-14.43v29.61h14.89v-16.39c0-.52.38-1.68.61-2.18,2.32-5.07,12.2-5.14,11.96,1.62v16.95s14.79,0,14.79,0v-19.73c.03-9.78-11.31-12.14-19.1-10.32-3.24.76-6.24,2.41-8.54,4.8l-.19-4.36Z"/>
  <path class="cls-2" d="M197.81,58.88h-17.03v-31.66h15.17v3.43c1.47-1.56,2.99-2.65,5-3.41,3-1.13,6.19-1.27,9.35-.74.32.05,2.16.4,2.21.58l-4.18,9.84c-.12.09-1.2-.5-1.47-.59-2.08-.68-4.81-.19-6.82.58-.4.15-2.24.97-2.24,1.39v20.56ZM194.93,28.25h-13.12v29.61h14.98v-19.91c0-.3,1.27-1.22,1.58-1.39,2.64-1.49,6.63-2.04,9.49-.97l3.26-7.89c-5.23-1.13-12.09-.26-15.06,4.71-.39.66-.66,1.38-1,2.07l-.14-6.22Z"/>
  <path class="cls-5" d="M338.07,15.81v43.08h-17.03V15.81h17.03ZM337.05,16.83h-14.89v41.03h14.89V16.83Z"/>
  <path class="cls-2" d="M363.3,15.81v43.08h-16.85V15.81h16.85ZM362.37,16.83h-14.89v41.03h14.89V16.83Z"/>
  <path class="cls-2" d="M387.68,27.23v31.66h-16.47v-31.66h16.47ZM386.75,28.25h-14.52v29.61h14.52v-29.61Z"/>
  <path class="cls-2" d="M387.68,15.81v9.28h-16.47v-9.28h16.47ZM386.75,16.83h-14.52v7.24h14.52v-7.24Z"/>
  <path class="cls-4" d="M261.66,45.33h-30.71c.04.94.07,1.92.39,2.81,1.84,5.03,11.06,5.81,14.69,2.62.08-.07.08-.23.09-.23h13.68c-2.3,4.93-7.94,6.99-13,7.78-12.38,1.94-31.28-.1-30.09-16.74.41-5.71,4.84-10.15,9.93-12.19,9.09-3.64,25.59-3.22,31.84,5.43,2.21,3.06,3.07,6.78,3.18,10.52ZM246.86,40.22c-.11-3.17-1.62-5.07-4.73-5.73-3.3-.7-8.86-.5-10.33,3.2-.33.82-.34,1.66-.39,2.53h15.45Z"/>
  <path class="cls-4" d="M170.73,16.83v41.03h-14.71l.19-4.18c-2.64,2.7-5.65,4.5-9.46,5-9.41,1.24-18.88-2.87-20.22-13.04-1.11-8.42,2.79-16.16,11.51-17.92,4.34-.88,9.77-.74,13.67,1.53,1.41.83,2.54,2.04,3.85,2.99v-15.41h15.17ZM147.81,34.96c-3.42.28-5.49,2.11-6.17,5.45-.94,4.55.44,9.9,5.69,10.67,6.9,1,9.71-5.21,8.26-11.11-.93-3.77-4.06-5.31-7.77-5Z"/>
  <path class="cls-4" d="M268.23,47.68c-1.56-4.44-.7-9.75,2.27-13.45,5.6-6.96,17.58-7.79,25.8-6.52,7.66,1.18,15.22,5.66,15.71,14.13.9,15.48-16.2,18.26-28.15,16.65-6.96-.94-13.19-3.85-15.64-10.81ZM295.58,37.68c-2.69-3.68-10.17-3.59-12.06.81-1.14,2.67-1.17,8.03.5,10.49,2.4,3.53,9.38,3.33,11.71-.19,1.67-2.51,1.63-8.67-.15-11.11Z"/>
  <path class="cls-1" d="M34.32,3.8c1.41,4.54,2.64,9.3,3.94,13.94.11.81-.07,1.53-.58,2.16-.8.99-2.23,2.29-3.18,3.24-2.31,2.33-4.7,4.59-7.02,6.92-8.66,8.71-17.28,17.49-26.03,26.12l-.4.02.07-.62c4.99-8.55,10.02-17.05,14.97-25.64.6-.78,1.41-.96,2.37-.79-.88-.99-.8-1.82-.23-2.93.75-1.47,1.77-2.89,2.59-4.29,3.96-6.74,7.81-13.55,11.75-20.3.17-.36.62-.84.98-.43.23.26.62,2.13.77,2.62Z"/>
  <path class="cls-4" d="M48.21,23.17c.49.83,2.17,3.5,2.32,4.24.16.81-.1,1.43-.61,2.05.75-.18,1.49-.02,2.09.47,3.37,5.52,6.53,11.19,9.79,16.78,1.61,2.75,3.67,5.74,5.07,8.59.32.66.53,1.19-.51,1.06l-16.24-4.22c-.69-.2-1.21-.69-1.59-1.3-4.78-16.32-9.17-32.92-13.7-49.37-.1-.87.61-.27.82.2,4.08,7.22,8.36,14.39,12.55,21.5Z"/>
  <path class="cls-3" d="M66.2,57.76c-.04.05-.4.1-.5.11h-29.97c-.91-.16-1.7-.86-1.86-1.77-.19.88-.83,1.66-1.77,1.77H2.49c-.66.03-.79-.47-.37-.93l12.05-12.02c.59-.45,1.17-.57,1.91-.51l49.49,12.75c.26.02.84.29.62.62Z"/>
  <path class="cls-4" d="M89.85,28.25l.19,4.36c2.31-2.39,5.3-4.04,8.54-4.8,7.79-1.82,19.13.53,19.1,10.32v19.73h-14.8v-16.95c.24-6.76-9.64-6.69-11.96-1.62-.23.5-.61,1.65-.61,2.18v16.39h-14.89v-29.61h14.43Z"/>
  <path class="cls-4" d="M194.93,28.25l.14,6.22c.34-.69.6-1.41,1-2.07,2.97-4.96,9.83-5.84,15.06-4.71l-3.26,7.89c-2.87-1.07-6.85-.52-9.49.97-.31.17-1.58,1.09-1.58,1.39v19.91h-14.98v-29.61h13.12Z"/>
  <rect class="cls-4" x="322.16" y="16.83" width="14.89" height="41.03"/>
  <rect class="cls-4" x="347.47" y="16.83" width="14.89" height="41.03"/>
  <rect class="cls-4" x="372.23" y="28.25" width="14.52" height="29.61"/>
  <rect class="cls-4" x="372.23" y="16.83" width="14.52" height="7.24"/>
  <path class="cls-2" d="M246.86,40.22h-15.45c.06-.87.07-1.71.39-2.53,1.47-3.69,7.02-3.9,10.33-3.2,3.1.66,4.62,2.55,4.73,5.73ZM245.74,39.2c-.36-2.59-2.33-3.57-4.71-3.89-3.02-.4-8.23-.04-8.5,3.89h13.22Z"/>
  <path class="cls-2" d="M147.81,34.96c3.72-.3,6.85,1.23,7.77,5,1.45,5.91-1.36,12.12-8.26,11.11-5.26-.76-6.63-6.12-5.69-10.67.69-3.34,2.75-5.17,6.17-5.45ZM148,35.98c-3.17.25-4.97,1.93-5.45,5.06-.63,4.19.61,8.74,5.51,9.12,5.71.44,7.58-4.76,6.61-9.56-.7-3.48-3.24-4.88-6.68-4.61Z"/>
  <path class="cls-2" d="M295.58,37.68c1.78,2.44,1.81,8.6.15,11.11-2.34,3.52-9.31,3.73-11.71.19-1.66-2.45-1.64-7.82-.5-10.49,1.89-4.41,9.37-4.49,12.06-.81ZM295.57,40.47c-.52-1.94-1.16-3.31-3.22-3.99s-5.72-.5-7.24,1.28c-1.88,2.22-1.88,8.83,0,11.04s6.6,2.14,8.7.51c1.32-1.02,2.01-3.39,2.1-4.96.07-1.35-.01-2.68-.34-3.89Z"/>
</svg>